solid OpenSCAD_Model
  facet normal -0.704302 -0.088974 -0.704302
    outer loop
      vertex -16.8429 -1.24345 0
      vertex -18 2.20436e-15 1
      vertex -17 2.0819e-15 0
    endloop
  endfacet
  facet normal -0.704302 0.088974 -0.704302
    outer loop
      vertex -17 2.0819e-15 0
      vertex -18 2.20436e-15 1
      vertex -16.8429 1.24345 0
    endloop
  endfacet
  facet normal -0.704302 0.0889741 -0.704302
    outer loop
      vertex -16.8429 1.24345 0
      vertex -18 2.20436e-15 1
      vertex -17.8115 1.49214 1
    endloop
  endfacet
  facet normal -0.992115 0.125333 0
    outer loop
      vertex -18 2.20436e-15 1
      vertex -18 2.20436e-15 11
      vertex -17.8115 1.49214 1
    endloop
  endfacet
  facet normal -0.992115 0.125333 0
    outer loop
      vertex -17.8115 1.49214 1
      vertex -18 2.20436e-15 11
      vertex -17.8115 1.49214 11
    endloop
  endfacet
  facet normal -0.992115 -0.125333 0
    outer loop
      vertex -18 2.20436e-15 1
      vertex -17.8115 -1.49214 1
      vertex -18 2.20436e-15 11
    endloop
  endfacet
  facet normal -0.992115 -0.125333 0
    outer loop
      vertex -18 2.20436e-15 11
      vertex -17.8115 -1.49214 1
      vertex -17.8115 -1.49214 11
    endloop
  endfacet
  facet normal -0.704302 -0.0889741 -0.704302
    outer loop
      vertex -17.8115 -1.49214 1
      vertex -18 2.20436e-15 1
      vertex -16.8429 -1.24345 0
    endloop
  endfacet
  facet normal -0.660048 -0.261332 -0.704302
    outer loop
      vertex -17.2578 -2.89052 1
      vertex -17.8115 -1.49214 1
      vertex -16.8429 -1.24345 0
    endloop
  endfacet
  facet normal -0.660048 -0.261332 -0.704303
    outer loop
      vertex -16.3815 -2.40877 0
      vertex -17.2578 -2.89052 1
      vertex -16.8429 -1.24345 0
    endloop
  endfacet
  facet normal 0 0 -1
    outer loop
      vertex -17 2.0819e-15 0
      vertex -16.8429 1.24345 0
      vertex -16.8429 -1.24345 0
    endloop
  endfacet
  facet normal 0 0 -1
    outer loop
      vertex -16.8429 -1.24345 0
      vertex -16.8429 1.24345 0
      vertex -16.3815 2.40877 0
    endloop
  endfacet
  facet normal 0 0 -1
    outer loop
      vertex -16.8429 -1.24345 0
      vertex -16.3815 2.40877 0
      vertex -15.6448 3.42274 0
    endloop
  endfacet
  facet normal 0 0 -1
    outer loop
      vertex -16.8429 -1.24345 0
      vertex -15.6448 3.42274 0
      vertex -14.6791 4.22164 0
    endloop
  endfacet
  facet normal 0 0 -1
    outer loop
      vertex -16.8429 -1.24345 0
      vertex -14.6791 4.22164 0
      vertex -13.5451 4.75528 0
    endloop
  endfacet
  facet normal 0 0 -1
    outer loop
      vertex -16.8429 -1.24345 0
      vertex -13.5451 4.75528 0
      vertex -12.314 4.99013 0
    endloop
  endfacet
  facet normal 0 0 -1
    outer loop
      vertex -16.8429 -1.24345 0
      vertex -12.314 4.99013 0
      vertex -11.0631 4.91144 0
    endloop
  endfacet
  facet normal 0 0 -1
    outer loop
      vertex -16.8429 -1.24345 0
      vertex -11.0631 4.91144 0
      vertex -9.8711 4.52414 0
    endloop
  endfacet
  facet normal 0 0 -1
    outer loop
      vertex -16.8429 -1.24345 0
      vertex -9.8711 4.52414 0
      vertex -8.81288 3.85257 0
    endloop
  endfacet
  facet normal 0 0 -1
    outer loop
      vertex -16.8429 -1.24345 0
      vertex -8.81288 3.85257 0
      vertex -7.95491 2.93893 0
    endloop
  endfacet
  facet normal 0 0 -1
    outer loop
      vertex -16.8429 -1.24345 0
      vertex -7.95491 2.93893 0
      vertex -7.43874 2 0
    endloop
  endfacet
  facet normal 0 0 -1
    outer loop
      vertex -16.8429 -1.24345 0
      vertex -7.43874 2 0
      vertex 2.44929e-16 2 0
    endloop
  endfacet
  facet normal 0 0 -1
    outer loop
      vertex 2.44929e-16 2 0
      vertex 7.43874 2 0
      vertex -16.8429 -1.24345 0
    endloop
  endfacet
  facet normal 0 0 -1
    outer loop
      vertex 7.43874 2 0
      vertex 7.95492 2.93893 0
      vertex 8.81288 3.85257 0
    endloop
  endfacet
  facet normal 0 0 -1
    outer loop
      vertex 8.81288 3.85257 0
      vertex 9.8711 4.52413 0
      vertex 7.43874 2 0
    endloop
  endfacet
  facet normal 0 0 -1
    outer loop
      vertex 7.43874 2 0
      vertex 9.8711 4.52413 0
      vertex 11.0631 4.91144 0
    endloop
  endfacet
  facet normal 0 0 -1
    outer loop
      vertex 7.43874 2 0
      vertex 11.0631 4.91144 0
      vertex 12.314 4.99013 0
    endloop
  endfacet
  facet normal 0 0 -1
    outer loop
      vertex 7.43874 2 0
      vertex 12.314 4.99013 0
      vertex 13.5451 4.75528 0
    endloop
  endfacet
  facet normal 0 0 -1
    outer loop
      vertex 7.43874 2 0
      vertex 13.5451 4.75528 0
      vertex 14.6791 4.22164 0
    endloop
  endfacet
  facet normal 0 0 -1
    outer loop
      vertex 7.43874 2 0
      vertex 14.6791 4.22164 0
      vertex 15.6448 3.42274 0
    endloop
  endfacet
  facet normal 0 0 -1
    outer loop
      vertex 7.43874 2 0
      vertex 15.6448 3.42274 0
      vertex 16.3815 2.40877 0
    endloop
  endfacet
  facet normal 0 0 -1
    outer loop
      vertex 7.43874 2 0
      vertex 16.3815 2.40877 0
      vertex -16.8429 -1.24345 0
    endloop
  endfacet
  facet normal 0 0 -1
    outer loop
      vertex -16.8429 -1.24345 0
      vertex 16.3815 2.40877 0
      vertex 16.8429 1.24345 0
    endloop
  endfacet
  facet normal 0 0 -1
    outer loop
      vertex -16.8429 -1.24345 0
      vertex 16.8429 1.24345 0
      vertex 17 0 0
    endloop
  endfacet
  facet normal 0 0 -1
    outer loop
      vertex -16.8429 -1.24345 0
      vertex 17 0 0
      vertex 16.8429 -1.24345 0
    endloop
  endfacet
  facet normal 0 0 -1
    outer loop
      vertex 7.43874 -2 0
      vertex 16.8429 -1.24345 0
      vertex 16.3815 -2.40877 0
    endloop
  endfacet
  facet normal 0 0 -1
    outer loop
      vertex 7.95492 -2.93893 0
      vertex 15.6448 -3.42274 0
      vertex 14.6791 -4.22164 0
    endloop
  endfacet
  facet normal 0 0 -1
    outer loop
      vertex 8.81288 -3.85257 0
      vertex 14.6791 -4.22164 0
      vertex 13.5451 -4.75528 0
    endloop
  endfacet
  facet normal 0 0 -1
    outer loop
      vertex 9.8711 -4.52413 0
      vertex 13.5451 -4.75528 0
      vertex 12.314 -4.99013 0
    endloop
  endfacet
  facet normal 0 0 -1
    outer loop
      vertex 8.81288 -3.85257 0
      vertex 13.5451 -4.75528 0
      vertex 9.8711 -4.52413 0
    endloop
  endfacet
  facet normal 0 0 -1
    outer loop
      vertex 7.95492 -2.93893 0
      vertex 14.6791 -4.22164 0
      vertex 8.81288 -3.85257 0
    endloop
  endfacet
  facet normal 0 0 -1
    outer loop
      vertex 7.43874 -2 0
      vertex 16.3815 -2.40877 0
      vertex 15.6448 -3.42274 0
    endloop
  endfacet
  facet normal 0 0 -1
    outer loop
      vertex -16.8429 -1.24345 0
      vertex 16.8429 -1.24345 0
      vertex 7.43874 -2 0
    endloop
  endfacet
  facet normal 0 0 -1
    outer loop
      vertex -7.43874 -2 0
      vertex -16.8429 -1.24345 0
      vertex -0.1 -2 0
    endloop
  endfacet
  facet normal 0 0 -1
    outer loop
      vertex -16.8429 -1.24345 0
      vertex 0.1 -2 0
      vertex -2.44929e-16 -2 0
    endloop
  endfacet
  facet normal 0 0 -1
    outer loop
      vertex -16.8429 -1.24345 0
      vertex -2.44929e-16 -2 0
      vertex -0.1 -2 0
    endloop
  endfacet
  facet normal 0 0 -1
    outer loop
      vertex -7.95492 -2.93893 0
      vertex -16.8429 -1.24345 0
      vertex -7.43874 -2 0
    endloop
  endfacet
  facet normal 0 0 -1
    outer loop
      vertex 7.43874 -2 0
      vertex 15.6448 -3.42274 0
      vertex 7.95492 -2.93893 0
    endloop
  endfacet
  facet normal 0 0 -1
    outer loop
      vertex -16.8429 -1.24345 0
      vertex -7.95492 -2.93893 0
      vertex -8.81288 -3.85257 0
    endloop
  endfacet
  facet normal 0 0 -1
    outer loop
      vertex -8.81288 -3.85257 0
      vertex -9.8711 -4.52413 0
      vertex -16.8429 -1.24345 0
    endloop
  endfacet
  facet normal 0 0 -1
    outer loop
      vertex -16.8429 -1.24345 0
      vertex -9.8711 -4.52413 0
      vertex -11.0631 -4.91144 0
    endloop
  endfacet
  facet normal 0 0 -1
    outer loop
      vertex -16.8429 -1.24345 0
      vertex -11.0631 -4.91144 0
      vertex -12.314 -4.99013 0
    endloop
  endfacet
  facet normal 0 0 -1
    outer loop
      vertex -16.8429 -1.24345 0
      vertex -12.314 -4.99013 0
      vertex -13.5451 -4.75528 0
    endloop
  endfacet
  facet normal 0 0 -1
    outer loop
      vertex -16.8429 -1.24345 0
      vertex -13.5451 -4.75528 0
      vertex -14.6791 -4.22164 0
    endloop
  endfacet
  facet normal 0 0 -1
    outer loop
      vertex -16.8429 -1.24345 0
      vertex -14.6791 -4.22164 0
      vertex -15.6448 -3.42274 0
    endloop
  endfacet
  facet normal 0 0 -1
    outer loop
      vertex -16.8429 -1.24345 0
      vertex -15.6448 -3.42274 0
      vertex -16.3815 -2.40877 0
    endloop
  endfacet
  facet normal 0 0 -1
    outer loop
      vertex 9.8711 -4.52413 0
      vertex 12.314 -4.99013 0
      vertex 11.0631 -4.91144 0
    endloop
  endfacet
  facet normal 0 0 -1
    outer loop
      vertex 0.1 -2 0
      vertex -16.8429 -1.24345 0
      vertex 7.43874 -2 0
    endloop
  endfacet
  facet normal -0.660048 0.261332 -0.704303
    outer loop
      vertex -16.8429 1.24345 0
      vertex -17.2578 2.89052 1
      vertex -16.3815 2.40877 0
    endloop
  endfacet
  facet normal -0.660048 0.261332 -0.704302
    outer loop
      vertex -16.8429 1.24345 0
      vertex -17.8115 1.49214 1
      vertex -17.2578 2.89052 1
    endloop
  endfacet
  facet normal -0.929776 0.368125 0
    outer loop
      vertex -17.8115 1.49214 1
      vertex -17.8115 1.49214 11
      vertex -17.2578 2.89052 1
    endloop
  endfacet
  facet normal -0.929776 0.368125 0
    outer loop
      vertex -17.2578 2.89052 1
      vertex -17.8115 1.49214 11
      vertex -17.2578 2.89052 11
    endloop
  endfacet
  facet normal -0.704302 0.0889741 0.704302
    outer loop
      vertex -17.8115 1.49214 11
      vertex -18 2.20436e-15 11
      vertex -16.8429 1.24345 12
    endloop
  endfacet
  facet normal -0.660048 0.261332 0.704302
    outer loop
      vertex -17.2578 2.89052 11
      vertex -17.8115 1.49214 11
      vertex -16.8429 1.24345 12
    endloop
  endfacet
  facet normal -0.704302 0.088974 0.704302
    outer loop
      vertex -16.8429 1.24345 12
      vertex -18 2.20436e-15 11
      vertex -17 2.0819e-15 12
    endloop
  endfacet
  facet normal -0.704302 -0.088974 0.704302
    outer loop
      vertex -17 2.0819e-15 12
      vertex -18 2.20436e-15 11
      vertex -16.8429 -1.24345 12
    endloop
  endfacet
  facet normal -0.704302 -0.0889741 0.704302
    outer loop
      vertex -16.8429 -1.24345 12
      vertex -18 2.20436e-15 11
      vertex -17.8115 -1.49214 11
    endloop
  endfacet
  facet normal -0.660048 -0.261332 0.704302
    outer loop
      vertex -16.8429 -1.24345 12
      vertex -17.8115 -1.49214 11
      vertex -17.2578 -2.89052 11
    endloop
  endfacet
  facet normal -0.929776 -0.368125 0
    outer loop
      vertex -17.8115 -1.49214 1
      vertex -17.2578 -2.89052 1
      vertex -17.8115 -1.49214 11
    endloop
  endfacet
  facet normal -0.929776 -0.368125 0
    outer loop
      vertex -17.8115 -1.49214 11
      vertex -17.2578 -2.89052 1
      vertex -17.2578 -2.89052 11
    endloop
  endfacet
  facet normal -0.574321 -0.417268 -0.704303
    outer loop
      vertex -15.6448 -3.42274 0
      vertex -17.2578 -2.89052 1
      vertex -16.3815 -2.40877 0
    endloop
  endfacet
  facet normal -0.809017 -0.587785 0
    outer loop
      vertex -17.2578 -2.89052 1
      vertex -16.3738 -4.10728 1
      vertex -17.2578 -2.89052 11
    endloop
  endfacet
  facet normal -0.809017 -0.587785 0
    outer loop
      vertex -17.2578 -2.89052 11
      vertex -16.3738 -4.10728 1
      vertex -16.3738 -4.10728 11
    endloop
  endfacet
  facet normal -0.574321 -0.417269 -0.704302
    outer loop
      vertex -16.3738 -4.10728 1
      vertex -17.2578 -2.89052 1
      vertex -15.6448 -3.42274 0
    endloop
  endfacet
  facet normal -0.452507 -0.546987 -0.704302
    outer loop
      vertex -15.215 -5.06597 1
      vertex -16.3738 -4.10728 1
      vertex -15.6448 -3.42274 0
    endloop
  endfacet
  facet normal -0.452507 -0.546987 -0.704302
    outer loop
      vertex -15.215 -5.06597 1
      vertex -15.6448 -3.42274 0
      vertex -14.6791 -4.22164 0
    endloop
  endfacet
  facet normal -0.302261 -0.642337 -0.704302
    outer loop
      vertex -13.5451 -4.75528 0
      vertex -15.215 -5.06597 1
      vertex -14.6791 -4.22164 0
    endloop
  endfacet
  facet normal -0.302261 -0.642337 -0.704302
    outer loop
      vertex -13.8541 -5.70634 1
      vertex -15.215 -5.06597 1
      vertex -13.5451 -4.75528 0
    endloop
  endfacet
  facet normal -0.133022 -0.697326 -0.704302
    outer loop
      vertex -12.314 -4.99013 0
      vertex -13.8541 -5.70634 1
      vertex -13.5451 -4.75528 0
    endloop
  endfacet
  facet normal 0.0445746 -0.7085 -0.704302
    outer loop
      vertex -10.8757 -5.89372 1
      vertex -12.3767 -5.98816 1
      vertex -12.314 -4.99013 0
    endloop
  endfacet
  facet normal 0.0445753 -0.708499 -0.704303
    outer loop
      vertex -10.8757 -5.89372 1
      vertex -12.314 -4.99013 0
      vertex -11.0631 -4.91144 0
    endloop
  endfacet
  facet normal -0.133022 -0.697326 -0.704302
    outer loop
      vertex -12.3767 -5.98816 1
      vertex -13.8541 -5.70634 1
      vertex -12.314 -4.99013 0
    endloop
  endfacet
  facet normal 0.219371 -0.675155 -0.704303
    outer loop
      vertex -10.8757 -5.89372 1
      vertex -11.0631 -4.91144 0
      vertex -9.8711 -4.52413 0
    endloop
  endfacet
  facet normal 0.219372 -0.675155 -0.704302
    outer loop
      vertex -9.44532 -5.42896 1
      vertex -10.8757 -5.89372 1
      vertex -9.8711 -4.52413 0
    endloop
  endfacet
  facet normal 0.380383 -0.599388 -0.704302
    outer loop
      vertex -9.44532 -5.42896 1
      vertex -9.8711 -4.52413 0
      vertex -8.81288 -3.85257 0
    endloop
  endfacet
  facet normal 0.380384 -0.599389 -0.704302
    outer loop
      vertex -8.17546 -4.62308 1
      vertex -9.44532 -5.42896 1
      vertex -8.81288 -3.85257 0
    endloop
  endfacet
  facet normal 0.517495 -0.48596 -0.704302
    outer loop
      vertex -8.17546 -4.62308 1
      vertex -8.81288 -3.85257 0
      vertex -7.1459 -3.52671 1
    endloop
  endfacet
  facet normal 0.517495 -0.48596 -0.704303
    outer loop
      vertex -7.1459 -3.52671 1
      vertex -8.81288 -3.85257 0
      vertex -7.95492 -2.93893 0
    endloop
  endfacet
  facet normal 0.62209 -0.341997 -0.704302
    outer loop
      vertex -7.95492 -2.93893 0
      vertex -7.43874 -2 0
      vertex -7.1459 -3.52671 1
    endloop
  endfacet
  facet normal 0.62209 -0.341997 -0.704302
    outer loop
      vertex -7.1459 -3.52671 1
      vertex -7.43874 -2 0
      vertex -7.30345 -2.2323 0.232298
    endloop
  endfacet
  facet normal -8.65956e-17 -0.707107 -0.707107
    outer loop
      vertex -7.43874 -2 0
      vertex -0.1 -2 0
      vertex -7.30345 -2.2323 0.232298
    endloop
  endfacet
  facet normal -8.65956e-17 -0.707107 -0.707107
    outer loop
      vertex -7.30345 -2.2323 0.232298
      vertex -0.1 -2 0
      vertex -0.1 -3 1
    endloop
  endfacet
  facet normal -8.65956e-17 -0.707107 -0.707107
    outer loop
      vertex -7.30345 -2.2323 0.232298
      vertex -0.1 -3 1
      vertex -6.85634 -3 1
    endloop
  endfacet
  facet normal 0 -0.707107 -0.707107
    outer loop
      vertex -3.67394e-16 -3 1
      vertex -0.1 -3 1
      vertex -0.1 -2 0
    endloop
  endfacet
  facet normal 0 -0.707107 -0.707107
    outer loop
      vertex -2.44929e-16 -2 0
      vertex -3.67394e-16 -3 1
      vertex -0.1 -2 0
    endloop
  endfacet
  facet normal -8.65956e-17 -0.707107 -0.707107
    outer loop
      vertex -3.67394e-16 -3 1
      vertex -2.44929e-16 -2 0
      vertex 0.1 -3 1
    endloop
  endfacet
  facet normal -8.65956e-17 -0.707107 -0.707107
    outer loop
      vertex 0.1 -3 1
      vertex -2.44929e-16 -2 0
      vertex 0.1 -2 0
    endloop
  endfacet
  facet normal 0 -0.707107 -0.707107
    outer loop
      vertex 6.85634 -3 1
      vertex 0.1 -3 1
      vertex 0.1 -2 0
    endloop
  endfacet
  facet normal 0 -0.707107 -0.707107
    outer loop
      vertex 7.30345 -2.2323 0.232298
      vertex 6.85634 -3 1
      vertex 0.1 -2 0
    endloop
  endfacet
  facet normal 0 -0.707107 -0.707107
    outer loop
      vertex 7.43874 -2 0
      vertex 7.30345 -2.2323 0.232298
      vertex 0.1 -2 0
    endloop
  endfacet
  facet normal -0.62209 -0.341997 -0.704302
    outer loop
      vertex 7.1459 -3.52671 1
      vertex 7.30345 -2.2323 0.232298
      vertex 7.95492 -2.93893 0
    endloop
  endfacet
  facet normal -0.62209 -0.341997 -0.704302
    outer loop
      vertex 7.95492 -2.93893 0
      vertex 7.30345 -2.2323 0.232298
      vertex 7.43874 -2 0
    endloop
  endfacet
  facet normal -0.517495 -0.48596 -0.704303
    outer loop
      vertex 8.81288 -3.85257 0
      vertex 7.1459 -3.52671 1
      vertex 7.95492 -2.93893 0
    endloop
  endfacet
  facet normal -0.380383 -0.599388 -0.704302
    outer loop
      vertex 9.44532 -5.42896 1
      vertex 8.81288 -3.85257 0
      vertex 9.8711 -4.52413 0
    endloop
  endfacet
  facet normal -0.517495 -0.48596 -0.704302
    outer loop
      vertex 8.17546 -4.62308 1
      vertex 7.1459 -3.52671 1
      vertex 8.81288 -3.85257 0
    endloop
  endfacet
  facet normal -0.380384 -0.599389 -0.704302
    outer loop
      vertex 9.44532 -5.42896 1
      vertex 8.17546 -4.62308 1
      vertex 8.81288 -3.85257 0
    endloop
  endfacet
  facet normal -0.219372 -0.675155 -0.704302
    outer loop
      vertex 10.8757 -5.89372 1
      vertex 9.44532 -5.42896 1
      vertex 9.8711 -4.52413 0
    endloop
  endfacet
  facet normal -0.219371 -0.675155 -0.704303
    outer loop
      vertex 10.8757 -5.89372 1
      vertex 9.8711 -4.52413 0
      vertex 11.0631 -4.91144 0
    endloop
  endfacet
  facet normal -0.0445753 -0.708499 -0.704303
    outer loop
      vertex 12.314 -4.99013 0
      vertex 10.8757 -5.89372 1
      vertex 11.0631 -4.91144 0
    endloop
  endfacet
  facet normal -0.0445746 -0.7085 -0.704302
    outer loop
      vertex 12.3767 -5.98816 1
      vertex 10.8757 -5.89372 1
      vertex 12.314 -4.99013 0
    endloop
  endfacet
  facet normal 0.133022 -0.697326 -0.704302
    outer loop
      vertex 12.3767 -5.98816 1
      vertex 12.314 -4.99013 0
      vertex 13.8541 -5.70634 1
    endloop
  endfacet
  facet normal 0.133022 -0.697326 -0.704302
    outer loop
      vertex 13.8541 -5.70634 1
      vertex 12.314 -4.99013 0
      vertex 13.5451 -4.75528 0
    endloop
  endfacet
  facet normal 0.302261 -0.642337 -0.704302
    outer loop
      vertex 13.8541 -5.70634 1
      vertex 13.5451 -4.75528 0
      vertex 15.215 -5.06597 1
    endloop
  endfacet
  facet normal 0.302261 -0.642337 -0.704302
    outer loop
      vertex 15.215 -5.06597 1
      vertex 13.5451 -4.75528 0
      vertex 14.6791 -4.22164 0
    endloop
  endfacet
  facet normal 0.452507 -0.546987 -0.704302
    outer loop
      vertex 15.215 -5.06597 1
      vertex 14.6791 -4.22164 0
      vertex 15.6448 -3.42274 0
    endloop
  endfacet
  facet normal 0.452507 -0.546987 -0.704302
    outer loop
      vertex 16.3738 -4.10728 1
      vertex 15.215 -5.06597 1
      vertex 15.6448 -3.42274 0
    endloop
  endfacet
  facet normal 0.574321 -0.417269 -0.704302
    outer loop
      vertex 16.3738 -4.10728 1
      vertex 15.6448 -3.42274 0
      vertex 17.2578 -2.89052 1
    endloop
  endfacet
  facet normal 0.574321 -0.417268 -0.704303
    outer loop
      vertex 17.2578 -2.89052 1
      vertex 15.6448 -3.42274 0
      vertex 16.3815 -2.40877 0
    endloop
  endfacet
  facet normal 0.660048 -0.261332 -0.704303
    outer loop
      vertex 17.2578 -2.89052 1
      vertex 16.3815 -2.40877 0
      vertex 16.8429 -1.24345 0
    endloop
  endfacet
  facet normal 0.660048 -0.261332 -0.704302
    outer loop
      vertex 17.2578 -2.89052 1
      vertex 16.8429 -1.24345 0
      vertex 17.8115 -1.49214 1
    endloop
  endfacet
  facet normal 0.704302 -0.0889741 -0.704302
    outer loop
      vertex 17.8115 -1.49214 1
      vertex 16.8429 -1.24345 0
      vertex 18 0 1
    endloop
  endfacet
  facet normal 0.704302 -0.088974 -0.704302
    outer loop
      vertex 18 0 1
      vertex 16.8429 -1.24345 0
      vertex 17 0 0
    endloop
  endfacet
  facet normal 0.704302 0.088974 -0.704302
    outer loop
      vertex 17 0 0
      vertex 16.8429 1.24345 0
      vertex 18 0 1
    endloop
  endfacet
  facet normal 0.704302 0.0889741 -0.704302
    outer loop
      vertex 18 0 1
      vertex 16.8429 1.24345 0
      vertex 17.8115 1.49214 1
    endloop
  endfacet
  facet normal 0.660048 0.261332 -0.704302
    outer loop
      vertex 17.8115 1.49214 1
      vertex 16.8429 1.24345 0
      vertex 17.2578 2.89052 1
    endloop
  endfacet
  facet normal 0.660048 0.261332 -0.704303
    outer loop
      vertex 16.8429 1.24345 0
      vertex 16.3815 2.40877 0
      vertex 17.2578 2.89052 1
    endloop
  endfacet
  facet normal 0.574321 0.417268 -0.704303
    outer loop
      vertex 16.3815 2.40877 0
      vertex 15.6448 3.42274 0
      vertex 17.2578 2.89052 1
    endloop
  endfacet
  facet normal 0.574321 0.417269 -0.704302
    outer loop
      vertex 17.2578 2.89052 1
      vertex 15.6448 3.42274 0
      vertex 16.3738 4.10728 1
    endloop
  endfacet
  facet normal 0.452507 0.546987 -0.704302
    outer loop
      vertex 15.6448 3.42274 0
      vertex 15.215 5.06597 1
      vertex 16.3738 4.10728 1
    endloop
  endfacet
  facet normal 0.452507 0.546987 -0.704302
    outer loop
      vertex 15.6448 3.42274 0
      vertex 14.6791 4.22164 0
      vertex 15.215 5.06597 1
    endloop
  endfacet
  facet normal 0.302261 0.642337 -0.704302
    outer loop
      vertex 14.6791 4.22164 0
      vertex 13.5451 4.75528 0
      vertex 15.215 5.06597 1
    endloop
  endfacet
  facet normal 0.302261 0.642337 -0.704302
    outer loop
      vertex 15.215 5.06597 1
      vertex 13.5451 4.75528 0
      vertex 13.8541 5.70634 1
    endloop
  endfacet
  facet normal 0.133022 0.697326 -0.704302
    outer loop
      vertex 13.5451 4.75528 0
      vertex 12.314 4.99013 0
      vertex 13.8541 5.70634 1
    endloop
  endfacet
  facet normal -0.0445746 0.7085 -0.704302
    outer loop
      vertex 12.314 4.99013 0
      vertex 10.8757 5.89372 1
      vertex 12.3767 5.98816 1
    endloop
  endfacet
  facet normal -0.0445753 0.708499 -0.704303
    outer loop
      vertex 11.0631 4.91144 0
      vertex 10.8757 5.89372 1
      vertex 12.314 4.99013 0
    endloop
  endfacet
  facet normal 0.133022 0.697326 -0.704302
    outer loop
      vertex 13.8541 5.70634 1
      vertex 12.314 4.99013 0
      vertex 12.3767 5.98816 1
    endloop
  endfacet
  facet normal -0.219371 0.675155 -0.704303
    outer loop
      vertex 11.0631 4.91144 0
      vertex 9.8711 4.52413 0
      vertex 10.8757 5.89372 1
    endloop
  endfacet
  facet normal -0.219372 0.675155 -0.704302
    outer loop
      vertex 9.8711 4.52413 0
      vertex 9.44532 5.42896 1
      vertex 10.8757 5.89372 1
    endloop
  endfacet
  facet normal -0.380383 0.599388 -0.704302
    outer loop
      vertex 9.8711 4.52413 0
      vertex 8.81288 3.85257 0
      vertex 9.44532 5.42896 1
    endloop
  endfacet
  facet normal -0.380384 0.599389 -0.704302
    outer loop
      vertex 8.81288 3.85257 0
      vertex 8.17546 4.62308 1
      vertex 9.44532 5.42896 1
    endloop
  endfacet
  facet normal -0.517495 0.48596 -0.704302
    outer loop
      vertex 8.81288 3.85257 0
      vertex 7.1459 3.52671 1
      vertex 8.17546 4.62308 1
    endloop
  endfacet
  facet normal -0.517495 0.48596 -0.704303
    outer loop
      vertex 7.95492 2.93893 0
      vertex 7.1459 3.52671 1
      vertex 8.81288 3.85257 0
    endloop
  endfacet
  facet normal -0.62209 0.341997 -0.704302
    outer loop
      vertex 7.1459 3.52671 1
      vertex 7.95492 2.93893 0
      vertex 7.30345 2.2323 0.232298
    endloop
  endfacet
  facet normal -0.62209 0.341997 -0.704302
    outer loop
      vertex 7.30345 2.2323 0.232298
      vertex 7.95492 2.93893 0
      vertex 7.43874 2 0
    endloop
  endfacet
  facet normal 0 0.707107 -0.707107
    outer loop
      vertex 2.44929e-16 2 0
      vertex 3.67394e-16 3 1
      vertex 7.43874 2 0
    endloop
  endfacet
  facet normal 0 0.707107 -0.707107
    outer loop
      vertex 7.30345 2.2323 0.232298
      vertex 3.67394e-16 3 1
      vertex 6.85634 3 1
    endloop
  endfacet
  facet normal 0 0.707107 -0.707107
    outer loop
      vertex 7.43874 2 0
      vertex 3.67394e-16 3 1
      vertex 7.30345 2.2323 0.232298
    endloop
  endfacet
  facet normal 8.65956e-17 0.707107 -0.707107
    outer loop
      vertex -7.43874 2 0
      vertex -7.30345 2.2323 0.232298
      vertex 2.44929e-16 2 0
    endloop
  endfacet
  facet normal 8.65956e-17 0.707107 -0.707107
    outer loop
      vertex 2.44929e-16 2 0
      vertex -7.30345 2.2323 0.232298
      vertex -6.85634 3 1
    endloop
  endfacet
  facet normal 8.65956e-17 0.707107 -0.707107
    outer loop
      vertex 2.44929e-16 2 0
      vertex -6.85634 3 1
      vertex 3.67394e-16 3 1
    endloop
  endfacet
  facet normal 0.62209 0.341997 -0.704302
    outer loop
      vertex -7.95491 2.93893 0
      vertex -7.1459 3.52671 1
      vertex -7.43874 2 0
    endloop
  endfacet
  facet normal 0.62209 0.341997 -0.704302
    outer loop
      vertex -7.43874 2 0
      vertex -7.1459 3.52671 1
      vertex -7.30345 2.2323 0.232298
    endloop
  endfacet
  facet normal 0.517495 0.48596 -0.704303
    outer loop
      vertex -7.95491 2.93893 0
      vertex -8.81288 3.85257 0
      vertex -7.1459 3.52671 1
    endloop
  endfacet
  facet normal 0.380383 0.599388 -0.704302
    outer loop
      vertex -8.81288 3.85257 0
      vertex -9.8711 4.52414 0
      vertex -9.44532 5.42896 1
    endloop
  endfacet
  facet normal 0.517495 0.48596 -0.704302
    outer loop
      vertex -7.1459 3.52671 1
      vertex -8.81288 3.85257 0
      vertex -8.17546 4.62308 1
    endloop
  endfacet
  facet normal 0.380384 0.599389 -0.704302
    outer loop
      vertex -8.81288 3.85257 0
      vertex -9.44532 5.42896 1
      vertex -8.17546 4.62308 1
    endloop
  endfacet
  facet normal 0.219372 0.675155 -0.704302
    outer loop
      vertex -9.8711 4.52414 0
      vertex -10.8757 5.89372 1
      vertex -9.44532 5.42896 1
    endloop
  endfacet
  facet normal 0.219371 0.675155 -0.704303
    outer loop
      vertex -9.8711 4.52414 0
      vertex -11.0631 4.91144 0
      vertex -10.8757 5.89372 1
    endloop
  endfacet
  facet normal 0.0445753 0.708499 -0.704303
    outer loop
      vertex -11.0631 4.91144 0
      vertex -12.314 4.99013 0
      vertex -10.8757 5.89372 1
    endloop
  endfacet
  facet normal 0.0445746 0.7085 -0.704302
    outer loop
      vertex -12.314 4.99013 0
      vertex -12.3767 5.98816 1
      vertex -10.8757 5.89372 1
    endloop
  endfacet
  facet normal -0.133022 0.697326 -0.704302
    outer loop
      vertex -12.314 4.99013 0
      vertex -13.8541 5.70634 1
      vertex -12.3767 5.98816 1
    endloop
  endfacet
  facet normal -0.133022 0.697326 -0.704302
    outer loop
      vertex -13.5451 4.75528 0
      vertex -13.8541 5.70634 1
      vertex -12.314 4.99013 0
    endloop
  endfacet
  facet normal -0.302261 0.642337 -0.704302
    outer loop
      vertex -13.5451 4.75528 0
      vertex -15.215 5.06597 1
      vertex -13.8541 5.70634 1
    endloop
  endfacet
  facet normal -0.302261 0.642337 -0.704302
    outer loop
      vertex -14.6791 4.22164 0
      vertex -15.215 5.06597 1
      vertex -13.5451 4.75528 0
    endloop
  endfacet
  facet normal -0.452507 0.546987 -0.704302
    outer loop
      vertex -14.6791 4.22164 0
      vertex -15.6448 3.42274 0
      vertex -15.215 5.06597 1
    endloop
  endfacet
  facet normal -0.452507 0.546987 -0.704302
    outer loop
      vertex -15.6448 3.42274 0
      vertex -16.3738 4.10728 1
      vertex -15.215 5.06597 1
    endloop
  endfacet
  facet normal -0.574321 0.417269 -0.704302
    outer loop
      vertex -15.6448 3.42274 0
      vertex -17.2578 2.89052 1
      vertex -16.3738 4.10728 1
    endloop
  endfacet
  facet normal -0.574321 0.417268 -0.704303
    outer loop
      vertex -16.3815 2.40877 0
      vertex -17.2578 2.89052 1
      vertex -15.6448 3.42274 0
    endloop
  endfacet
  facet normal -0.809017 0.587785 0
    outer loop
      vertex -17.2578 2.89052 1
      vertex -17.2578 2.89052 11
      vertex -16.3738 4.10728 1
    endloop
  endfacet
  facet normal -0.809017 0.587785 0
    outer loop
      vertex -16.3738 4.10728 1
      vertex -17.2578 2.89052 11
      vertex -16.3738 4.10728 11
    endloop
  endfacet
  facet normal -0.660048 0.261332 0.704303
    outer loop
      vertex -16.3815 2.40877 12
      vertex -17.2578 2.89052 11
      vertex -16.8429 1.24345 12
    endloop
  endfacet
  facet normal -0.574321 0.417269 0.704302
    outer loop
      vertex -16.3738 4.10728 11
      vertex -17.2578 2.89052 11
      vertex -15.6448 3.42274 12
    endloop
  endfacet
  facet normal -0.574321 0.417268 0.704303
    outer loop
      vertex -15.6448 3.42274 12
      vertex -17.2578 2.89052 11
      vertex -16.3815 2.40877 12
    endloop
  endfacet
  facet normal 0 0 1
    outer loop
      vertex -16.8429 1.24345 12
      vertex -17 2.0819e-15 12
      vertex -16.8429 -1.24345 12
    endloop
  endfacet
  facet normal 0 0 1
    outer loop
      vertex -15.6448 -3.42274 12
      vertex -16.8429 1.24345 12
      vertex -16.3815 -2.40877 12
    endloop
  endfacet
  facet normal 0 0 1
    outer loop
      vertex -16.3815 -2.40877 12
      vertex -16.8429 1.24345 12
      vertex -16.8429 -1.24345 12
    endloop
  endfacet
  facet normal 0 0 1
    outer loop
      vertex -14.6791 -4.22164 12
      vertex -16.8429 1.24345 12
      vertex -15.6448 -3.42274 12
    endloop
  endfacet
  facet normal 0 0 1
    outer loop
      vertex -13.5451 -4.75528 12
      vertex -16.8429 1.24345 12
      vertex -14.6791 -4.22164 12
    endloop
  endfacet
  facet normal 0 0 1
    outer loop
      vertex -12.314 -4.99013 12
      vertex -16.8429 1.24345 12
      vertex -13.5451 -4.75528 12
    endloop
  endfacet
  facet normal 0 0 1
    outer loop
      vertex -11.0631 -4.91144 12
      vertex -16.8429 1.24345 12
      vertex -12.314 -4.99013 12
    endloop
  endfacet
  facet normal 0 0 1
    outer loop
      vertex -9.8711 -4.52413 12
      vertex -16.8429 1.24345 12
      vertex -11.0631 -4.91144 12
    endloop
  endfacet
  facet normal 0 0 1
    outer loop
      vertex -8.81288 -3.85257 12
      vertex -16.8429 1.24345 12
      vertex -9.8711 -4.52413 12
    endloop
  endfacet
  facet normal 0 0 1
    outer loop
      vertex -7.95492 -2.93893 12
      vertex -16.8429 1.24345 12
      vertex -8.81288 -3.85257 12
    endloop
  endfacet
  facet normal 0 0 1
    outer loop
      vertex -7.43874 -2 12
      vertex -16.8429 1.24345 12
      vertex -7.95492 -2.93893 12
    endloop
  endfacet
  facet normal 0 0 1
    outer loop
      vertex -0.1 -2 12
      vertex -16.8429 1.24345 12
      vertex -7.43874 -2 12
    endloop
  endfacet
  facet normal 0 0 1
    outer loop
      vertex -2.44929e-16 -2 12
      vertex -16.8429 1.24345 12
      vertex -0.1 -2 12
    endloop
  endfacet
  facet normal 0 0 1
    outer loop
      vertex 0.1 -2 12
      vertex -16.8429 1.24345 12
      vertex -2.44929e-16 -2 12
    endloop
  endfacet
  facet normal 0 0 1
    outer loop
      vertex 7.43874 -2 12
      vertex -16.8429 1.24345 12
      vertex 0.1 -2 12
    endloop
  endfacet
  facet normal 0 0 1
    outer loop
      vertex 16.3815 -2.40877 12
      vertex -16.8429 1.24345 12
      vertex 7.43874 -2 12
    endloop
  endfacet
  facet normal 0 0 1
    outer loop
      vertex 8.81288 -3.85257 12
      vertex 7.43874 -2 12
      vertex 7.95492 -2.93893 12
    endloop
  endfacet
  facet normal 0 0 1
    outer loop
      vertex 9.8711 -4.52413 12
      vertex 7.43874 -2 12
      vertex 8.81288 -3.85257 12
    endloop
  endfacet
  facet normal 0 0 1
    outer loop
      vertex 11.0631 -4.91144 12
      vertex 7.43874 -2 12
      vertex 9.8711 -4.52413 12
    endloop
  endfacet
  facet normal 0 0 1
    outer loop
      vertex 12.314 -4.99013 12
      vertex 7.43874 -2 12
      vertex 11.0631 -4.91144 12
    endloop
  endfacet
  facet normal 0 0 1
    outer loop
      vertex 13.5451 -4.75528 12
      vertex 7.43874 -2 12
      vertex 12.314 -4.99013 12
    endloop
  endfacet
  facet normal 0 0 1
    outer loop
      vertex 14.6791 -4.22164 12
      vertex 7.43874 -2 12
      vertex 13.5451 -4.75528 12
    endloop
  endfacet
  facet normal 0 0 1
    outer loop
      vertex 15.6448 -3.42274 12
      vertex 7.43874 -2 12
      vertex 14.6791 -4.22164 12
    endloop
  endfacet
  facet normal 0 0 1
    outer loop
      vertex 16.3815 -2.40877 12
      vertex 7.43874 -2 12
      vertex 15.6448 -3.42274 12
    endloop
  endfacet
  facet normal 0 0 1
    outer loop
      vertex 16.8429 -1.24345 12
      vertex -16.8429 1.24345 12
      vertex 16.3815 -2.40877 12
    endloop
  endfacet
  facet normal 0 0 1
    outer loop
      vertex 17 0 12
      vertex -16.8429 1.24345 12
      vertex 16.8429 -1.24345 12
    endloop
  endfacet
  facet normal 0 0 1
    outer loop
      vertex 16.8429 1.24345 12
      vertex -16.8429 1.24345 12
      vertex 17 0 12
    endloop
  endfacet
  facet normal 0 0 1
    outer loop
      vertex 7.43874 2 12
      vertex -16.8429 1.24345 12
      vertex 16.8429 1.24345 12
    endloop
  endfacet
  facet normal 0 0 1
    outer loop
      vertex 2.44929e-16 2 12
      vertex -7.43874 2 12
      vertex -16.8429 1.24345 12
    endloop
  endfacet
  facet normal 0 0 1
    outer loop
      vertex 9.8711 4.52413 12
      vertex 8.81288 3.85257 12
      vertex 13.5451 4.75528 12
    endloop
  endfacet
  facet normal 0 0 1
    outer loop
      vertex 12.314 4.99013 12
      vertex 9.8711 4.52413 12
      vertex 13.5451 4.75528 12
    endloop
  endfacet
  facet normal 0 0 1
    outer loop
      vertex 13.5451 4.75528 12
      vertex 8.81288 3.85257 12
      vertex 14.6791 4.22164 12
    endloop
  endfacet
  facet normal 0 0 1
    outer loop
      vertex 14.6791 4.22164 12
      vertex 7.95492 2.93893 12
      vertex 15.6448 3.42274 12
    endloop
  endfacet
  facet normal 0 0 1
    outer loop
      vertex 16.3815 2.40877 12
      vertex 7.43874 2 12
      vertex 16.8429 1.24345 12
    endloop
  endfacet
  facet normal 0 0 1
    outer loop
      vertex -7.43874 2 12
      vertex -7.95491 2.93893 12
      vertex -16.8429 1.24345 12
    endloop
  endfacet
  facet normal 0 0 1
    outer loop
      vertex 7.43874 2 12
      vertex 2.44929e-16 2 12
      vertex -16.8429 1.24345 12
    endloop
  endfacet
  facet normal 0 0 1
    outer loop
      vertex -8.81288 3.85257 12
      vertex -16.8429 1.24345 12
      vertex -7.95491 2.93893 12
    endloop
  endfacet
  facet normal 0 0 1
    outer loop
      vertex -9.8711 4.52414 12
      vertex -16.8429 1.24345 12
      vertex -8.81288 3.85257 12
    endloop
  endfacet
  facet normal 0 0 1
    outer loop
      vertex -11.0631 4.91144 12
      vertex -16.8429 1.24345 12
      vertex -9.8711 4.52414 12
    endloop
  endfacet
  facet normal 0 0 1
    outer loop
      vertex -12.314 4.99013 12
      vertex -16.8429 1.24345 12
      vertex -11.0631 4.91144 12
    endloop
  endfacet
  facet normal 0 0 1
    outer loop
      vertex -13.5451 4.75528 12
      vertex -16.8429 1.24345 12
      vertex -12.314 4.99013 12
    endloop
  endfacet
  facet normal 0 0 1
    outer loop
      vertex -14.6791 4.22164 12
      vertex -16.8429 1.24345 12
      vertex -13.5451 4.75528 12
    endloop
  endfacet
  facet normal 0 0 1
    outer loop
      vertex -15.6448 3.42274 12
      vertex -16.8429 1.24345 12
      vertex -14.6791 4.22164 12
    endloop
  endfacet
  facet normal 0 0 1
    outer loop
      vertex -16.3815 2.40877 12
      vertex -16.8429 1.24345 12
      vertex -15.6448 3.42274 12
    endloop
  endfacet
  facet normal 0 0 1
    outer loop
      vertex 11.0631 4.91144 12
      vertex 9.8711 4.52413 12
      vertex 12.314 4.99013 12
    endloop
  endfacet
  facet normal 0 0 1
    outer loop
      vertex 8.81288 3.85257 12
      vertex 7.95492 2.93893 12
      vertex 14.6791 4.22164 12
    endloop
  endfacet
  facet normal 0 0 1
    outer loop
      vertex 7.95492 2.93893 12
      vertex 16.3815 2.40877 12
      vertex 15.6448 3.42274 12
    endloop
  endfacet
  facet normal 0 0 1
    outer loop
      vertex 7.95492 2.93893 12
      vertex 7.43874 2 12
      vertex 16.3815 2.40877 12
    endloop
  endfacet
  facet normal -0.660048 -0.261332 0.704303
    outer loop
      vertex -16.8429 -1.24345 12
      vertex -17.2578 -2.89052 11
      vertex -16.3815 -2.40877 12
    endloop
  endfacet
  facet normal -0.574321 -0.417269 0.704302
    outer loop
      vertex -15.6448 -3.42274 12
      vertex -17.2578 -2.89052 11
      vertex -16.3738 -4.10728 11
    endloop
  endfacet
  facet normal -0.574321 -0.417268 0.704303
    outer loop
      vertex -16.3815 -2.40877 12
      vertex -17.2578 -2.89052 11
      vertex -15.6448 -3.42274 12
    endloop
  endfacet
  facet normal -0.452507 -0.546987 0.704302
    outer loop
      vertex -15.6448 -3.42274 12
      vertex -16.3738 -4.10728 11
      vertex -15.215 -5.06597 11
    endloop
  endfacet
  facet normal -0.637424 -0.770513 0
    outer loop
      vertex -16.3738 -4.10728 11
      vertex -16.3738 -4.10728 1
      vertex -15.215 -5.06597 1
    endloop
  endfacet
  facet normal -0.637424 -0.770513 0
    outer loop
      vertex -15.215 -5.06597 11
      vertex -16.3738 -4.10728 11
      vertex -15.215 -5.06597 1
    endloop
  endfacet
  facet normal -0.425779 -0.904827 0
    outer loop
      vertex -15.215 -5.06597 11
      vertex -15.215 -5.06597 1
      vertex -13.8541 -5.70634 1
    endloop
  endfacet
  facet normal -0.425779 -0.904827 0
    outer loop
      vertex -13.8541 -5.70634 11
      vertex -15.215 -5.06597 11
      vertex -13.8541 -5.70634 1
    endloop
  endfacet
  facet normal -0.187381 -0.982287 0
    outer loop
      vertex -13.8541 -5.70634 11
      vertex -13.8541 -5.70634 1
      vertex -12.3767 -5.98816 1
    endloop
  endfacet
  facet normal -0.187381 -0.982287 0
    outer loop
      vertex -12.3767 -5.98816 11
      vertex -13.8541 -5.70634 11
      vertex -12.3767 -5.98816 1
    endloop
  endfacet
  facet normal 0.0627899 -0.998027 0
    outer loop
      vertex -12.3767 -5.98816 11
      vertex -12.3767 -5.98816 1
      vertex -10.8757 -5.89372 1
    endloop
  endfacet
  facet normal 0.0627899 -0.998027 0
    outer loop
      vertex -10.8757 -5.89372 11
      vertex -12.3767 -5.98816 11
      vertex -10.8757 -5.89372 1
    endloop
  endfacet
  facet normal 0.309017 -0.951056 0
    outer loop
      vertex -10.8757 -5.89372 11
      vertex -10.8757 -5.89372 1
      vertex -9.44532 -5.42896 1
    endloop
  endfacet
  facet normal 0.309017 -0.951056 0
    outer loop
      vertex -9.44532 -5.42896 11
      vertex -10.8757 -5.89372 11
      vertex -9.44532 -5.42896 1
    endloop
  endfacet
  facet normal 0.535827 -0.844328 0
    outer loop
      vertex -9.44532 -5.42896 11
      vertex -9.44532 -5.42896 1
      vertex -8.17546 -4.62308 1
    endloop
  endfacet
  facet normal 0.535827 -0.844328 0
    outer loop
      vertex -8.17546 -4.62308 11
      vertex -9.44532 -5.42896 11
      vertex -8.17546 -4.62308 1
    endloop
  endfacet
  facet normal 0.728968 -0.684547 0
    outer loop
      vertex -8.17546 -4.62308 11
      vertex -8.17546 -4.62308 1
      vertex -7.1459 -3.52671 1
    endloop
  endfacet
  facet normal 0.728968 -0.684547 0
    outer loop
      vertex -7.1459 -3.52671 11
      vertex -8.17546 -4.62308 11
      vertex -7.1459 -3.52671 1
    endloop
  endfacet
  facet normal 0.876307 -0.481753 0
    outer loop
      vertex -7.1459 -3.52671 11
      vertex -7.1459 -3.52671 1
      vertex -6.85634 -3 1
    endloop
  endfacet
  facet normal 0.876307 -0.481753 0
    outer loop
      vertex -6.85634 -3 11
      vertex -7.1459 -3.52671 11
      vertex -6.85634 -3 1
    endloop
  endfacet
  facet normal 0.62209 -0.341997 -0.704302
    outer loop
      vertex -7.1459 -3.52671 1
      vertex -7.30345 -2.2323 0.232298
      vertex -6.85634 -3 1
    endloop
  endfacet
  facet normal -1.22465e-16 -1 0
    outer loop
      vertex -6.85634 -3 11
      vertex -6.85634 -3 1
      vertex -0.1 -3 1
    endloop
  endfacet
  facet normal -1.22465e-16 -1 0
    outer loop
      vertex -0.1 -3 11
      vertex -6.85634 -3 11
      vertex -0.1 -3 1
    endloop
  endfacet
  facet normal -8.65956e-17 -0.707107 0.707107
    outer loop
      vertex -0.1 -2 12
      vertex -7.43874 -2 12
      vertex -7.30345 -2.2323 11.7677
    endloop
  endfacet
  facet normal -8.65956e-17 -0.707107 0.707107
    outer loop
      vertex -6.85634 -3 11
      vertex -0.1 -2 12
      vertex -7.30345 -2.2323 11.7677
    endloop
  endfacet
  facet normal -8.65956e-17 -0.707107 0.707107
    outer loop
      vertex -6.85634 -3 11
      vertex -0.1 -3 11
      vertex -0.1 -2 12
    endloop
  endfacet
  facet normal 0 -0.707107 0.707107
    outer loop
      vertex -0.1 -2 12
      vertex -0.1 -3 11
      vertex -3.67394e-16 -3 11
    endloop
  endfacet
  facet normal 0 -0.707107 0.707107
    outer loop
      vertex -2.44929e-16 -2 12
      vertex -0.1 -2 12
      vertex -3.67394e-16 -3 11
    endloop
  endfacet
  facet normal 0 -1 0
    outer loop
      vertex -0.1 -3 11
      vertex -0.1 -3 1
      vertex -3.67394e-16 -3 1
    endloop
  endfacet
  facet normal 0 -1 0
    outer loop
      vertex -3.67394e-16 -3 11
      vertex -0.1 -3 11
      vertex -3.67394e-16 -3 1
    endloop
  endfacet
  facet normal -1.22465e-16 -1 0
    outer loop
      vertex -3.67394e-16 -3 11
      vertex -3.67394e-16 -3 1
      vertex 0.1 -3 1
    endloop
  endfacet
  facet normal -1.22465e-16 -1 0
    outer loop
      vertex 0.1 -3 11
      vertex -3.67394e-16 -3 11
      vertex 0.1 -3 1
    endloop
  endfacet
  facet normal -8.65956e-17 -0.707107 0.707107
    outer loop
      vertex -2.44929e-16 -2 12
      vertex -3.67394e-16 -3 11
      vertex 0.1 -3 11
    endloop
  endfacet
  facet normal -8.65956e-17 -0.707107 0.707107
    outer loop
      vertex 0.1 -2 12
      vertex -2.44929e-16 -2 12
      vertex 0.1 -3 11
    endloop
  endfacet
  facet normal 0 -0.707107 0.707107
    outer loop
      vertex 0.1 -2 12
      vertex 0.1 -3 11
      vertex 6.85634 -3 11
    endloop
  endfacet
  facet normal 0 -0.707107 0.707107
    outer loop
      vertex 7.43874 -2 12
      vertex 0.1 -2 12
      vertex 7.30345 -2.2323 11.7677
    endloop
  endfacet
  facet normal 0 -0.707107 0.707107
    outer loop
      vertex 7.30345 -2.2323 11.7677
      vertex 0.1 -2 12
      vertex 6.85634 -3 11
    endloop
  endfacet
  facet normal 0 -1 0
    outer loop
      vertex 0.1 -3 11
      vertex 0.1 -3 1
      vertex 6.85634 -3 1
    endloop
  endfacet
  facet normal 0 -1 0
    outer loop
      vertex 6.85634 -3 11
      vertex 0.1 -3 11
      vertex 6.85634 -3 1
    endloop
  endfacet
  facet normal -0.876307 -0.481753 0
    outer loop
      vertex 6.85634 -3 1
      vertex 7.1459 -3.52671 1
      vertex 6.85634 -3 11
    endloop
  endfacet
  facet normal -0.876307 -0.481753 0
    outer loop
      vertex 6.85634 -3 11
      vertex 7.1459 -3.52671 1
      vertex 7.1459 -3.52671 11
    endloop
  endfacet
  facet normal -0.62209 -0.341997 -0.704302
    outer loop
      vertex 7.1459 -3.52671 1
      vertex 6.85634 -3 1
      vertex 7.30345 -2.2323 0.232298
    endloop
  endfacet
  facet normal -0.728968 -0.684547 0
    outer loop
      vertex 7.1459 -3.52671 1
      vertex 8.17546 -4.62308 1
      vertex 7.1459 -3.52671 11
    endloop
  endfacet
  facet normal -0.728968 -0.684547 0
    outer loop
      vertex 7.1459 -3.52671 11
      vertex 8.17546 -4.62308 1
      vertex 8.17546 -4.62308 11
    endloop
  endfacet
  facet normal -0.535827 -0.844328 0
    outer loop
      vertex 8.17546 -4.62308 11
      vertex 8.17546 -4.62308 1
      vertex 9.44532 -5.42896 1
    endloop
  endfacet
  facet normal -0.535827 -0.844328 0
    outer loop
      vertex 9.44532 -5.42896 11
      vertex 8.17546 -4.62308 11
      vertex 9.44532 -5.42896 1
    endloop
  endfacet
  facet normal -0.309017 -0.951056 0
    outer loop
      vertex 9.44532 -5.42896 11
      vertex 9.44532 -5.42896 1
      vertex 10.8757 -5.89372 1
    endloop
  endfacet
  facet normal -0.309017 -0.951056 0
    outer loop
      vertex 10.8757 -5.89372 11
      vertex 9.44532 -5.42896 11
      vertex 10.8757 -5.89372 1
    endloop
  endfacet
  facet normal -0.0627899 -0.998027 0
    outer loop
      vertex 10.8757 -5.89372 11
      vertex 10.8757 -5.89372 1
      vertex 12.3767 -5.98816 1
    endloop
  endfacet
  facet normal -0.0627899 -0.998027 0
    outer loop
      vertex 12.3767 -5.98816 11
      vertex 10.8757 -5.89372 11
      vertex 12.3767 -5.98816 1
    endloop
  endfacet
  facet normal 0.187381 -0.982287 0
    outer loop
      vertex 12.3767 -5.98816 11
      vertex 12.3767 -5.98816 1
      vertex 13.8541 -5.70634 1
    endloop
  endfacet
  facet normal 0.187381 -0.982287 0
    outer loop
      vertex 13.8541 -5.70634 11
      vertex 12.3767 -5.98816 11
      vertex 13.8541 -5.70634 1
    endloop
  endfacet
  facet normal 0.425779 -0.904827 0
    outer loop
      vertex 13.8541 -5.70634 11
      vertex 13.8541 -5.70634 1
      vertex 15.215 -5.06597 1
    endloop
  endfacet
  facet normal 0.425779 -0.904827 0
    outer loop
      vertex 15.215 -5.06597 11
      vertex 13.8541 -5.70634 11
      vertex 15.215 -5.06597 1
    endloop
  endfacet
  facet normal 0.637424 -0.770513 0
    outer loop
      vertex 15.215 -5.06597 11
      vertex 15.215 -5.06597 1
      vertex 16.3738 -4.10728 1
    endloop
  endfacet
  facet normal 0.637424 -0.770513 0
    outer loop
      vertex 16.3738 -4.10728 11
      vertex 15.215 -5.06597 11
      vertex 16.3738 -4.10728 1
    endloop
  endfacet
  facet normal 0.809017 -0.587785 0
    outer loop
      vertex 16.3738 -4.10728 11
      vertex 16.3738 -4.10728 1
      vertex 17.2578 -2.89052 1
    endloop
  endfacet
  facet normal 0.809017 -0.587785 0
    outer loop
      vertex 17.2578 -2.89052 11
      vertex 16.3738 -4.10728 11
      vertex 17.2578 -2.89052 1
    endloop
  endfacet
  facet normal 0.929776 -0.368125 0
    outer loop
      vertex 17.2578 -2.89052 11
      vertex 17.2578 -2.89052 1
      vertex 17.8115 -1.49214 1
    endloop
  endfacet
  facet normal 0.929776 -0.368125 0
    outer loop
      vertex 17.8115 -1.49214 11
      vertex 17.2578 -2.89052 11
      vertex 17.8115 -1.49214 1
    endloop
  endfacet
  facet normal 0.992115 -0.125333 0
    outer loop
      vertex 17.8115 -1.49214 11
      vertex 17.8115 -1.49214 1
      vertex 18 0 1
    endloop
  endfacet
  facet normal 0.992115 -0.125333 0
    outer loop
      vertex 18 0 11
      vertex 17.8115 -1.49214 11
      vertex 18 0 1
    endloop
  endfacet
  facet normal 0.992115 0.125333 0
    outer loop
      vertex 18 0 1
      vertex 17.8115 1.49214 1
      vertex 17.8115 1.49214 11
    endloop
  endfacet
  facet normal 0.992115 0.125333 0
    outer loop
      vertex 18 0 11
      vertex 18 0 1
      vertex 17.8115 1.49214 11
    endloop
  endfacet
  facet normal 0.929776 0.368125 0
    outer loop
      vertex 17.8115 1.49214 1
      vertex 17.2578 2.89052 1
      vertex 17.2578 2.89052 11
    endloop
  endfacet
  facet normal 0.929776 0.368125 0
    outer loop
      vertex 17.8115 1.49214 11
      vertex 17.8115 1.49214 1
      vertex 17.2578 2.89052 11
    endloop
  endfacet
  facet normal 0.809017 0.587785 0
    outer loop
      vertex 17.2578 2.89052 1
      vertex 16.3738 4.10728 1
      vertex 16.3738 4.10728 11
    endloop
  endfacet
  facet normal 0.809017 0.587785 0
    outer loop
      vertex 17.2578 2.89052 11
      vertex 17.2578 2.89052 1
      vertex 16.3738 4.10728 11
    endloop
  endfacet
  facet normal 0.637424 0.770513 0
    outer loop
      vertex 15.215 5.06597 1
      vertex 15.215 5.06597 11
      vertex 16.3738 4.10728 1
    endloop
  endfacet
  facet normal 0.637424 0.770513 0
    outer loop
      vertex 16.3738 4.10728 1
      vertex 15.215 5.06597 11
      vertex 16.3738 4.10728 11
    endloop
  endfacet
  facet normal 0.425779 0.904827 0
    outer loop
      vertex 13.8541 5.70634 1
      vertex 13.8541 5.70634 11
      vertex 15.215 5.06597 1
    endloop
  endfacet
  facet normal 0.425779 0.904827 0
    outer loop
      vertex 15.215 5.06597 1
      vertex 13.8541 5.70634 11
      vertex 15.215 5.06597 11
    endloop
  endfacet
  facet normal 0.187381 0.982287 0
    outer loop
      vertex 12.3767 5.98816 1
      vertex 12.3767 5.98816 11
      vertex 13.8541 5.70634 1
    endloop
  endfacet
  facet normal 0.187381 0.982287 0
    outer loop
      vertex 13.8541 5.70634 1
      vertex 12.3767 5.98816 11
      vertex 13.8541 5.70634 11
    endloop
  endfacet
  facet normal -0.0627899 0.998027 0
    outer loop
      vertex 10.8757 5.89372 1
      vertex 10.8757 5.89372 11
      vertex 12.3767 5.98816 1
    endloop
  endfacet
  facet normal -0.0627899 0.998027 0
    outer loop
      vertex 12.3767 5.98816 1
      vertex 10.8757 5.89372 11
      vertex 12.3767 5.98816 11
    endloop
  endfacet
  facet normal -0.309017 0.951056 0
    outer loop
      vertex 9.44532 5.42896 1
      vertex 9.44532 5.42896 11
      vertex 10.8757 5.89372 1
    endloop
  endfacet
  facet normal -0.309017 0.951056 0
    outer loop
      vertex 10.8757 5.89372 1
      vertex 9.44532 5.42896 11
      vertex 10.8757 5.89372 11
    endloop
  endfacet
  facet normal -0.535827 0.844328 0
    outer loop
      vertex 8.17546 4.62308 1
      vertex 8.17546 4.62308 11
      vertex 9.44532 5.42896 1
    endloop
  endfacet
  facet normal -0.535827 0.844328 0
    outer loop
      vertex 9.44532 5.42896 1
      vertex 8.17546 4.62308 11
      vertex 9.44532 5.42896 11
    endloop
  endfacet
  facet normal -0.728968 0.684547 0
    outer loop
      vertex 7.1459 3.52671 1
      vertex 7.1459 3.52671 11
      vertex 8.17546 4.62308 1
    endloop
  endfacet
  facet normal -0.728968 0.684547 0
    outer loop
      vertex 8.17546 4.62308 1
      vertex 7.1459 3.52671 11
      vertex 8.17546 4.62308 11
    endloop
  endfacet
  facet normal -0.876307 0.481753 0
    outer loop
      vertex 6.85634 3 1
      vertex 6.85634 3 11
      vertex 7.1459 3.52671 1
    endloop
  endfacet
  facet normal -0.876307 0.481753 0
    outer loop
      vertex 7.1459 3.52671 1
      vertex 6.85634 3 11
      vertex 7.1459 3.52671 11
    endloop
  endfacet
  facet normal -0.62209 0.341997 -0.704302
    outer loop
      vertex 7.30345 2.2323 0.232298
      vertex 6.85634 3 1
      vertex 7.1459 3.52671 1
    endloop
  endfacet
  facet normal 0 1 0
    outer loop
      vertex 3.67394e-16 3 1
      vertex 3.67394e-16 3 11
      vertex 6.85634 3 1
    endloop
  endfacet
  facet normal 0 1 0
    outer loop
      vertex 6.85634 3 1
      vertex 3.67394e-16 3 11
      vertex 6.85634 3 11
    endloop
  endfacet
  facet normal 1.22465e-16 1 0
    outer loop
      vertex -6.85634 3 1
      vertex -6.85634 3 11
      vertex 3.67394e-16 3 1
    endloop
  endfacet
  facet normal 1.22465e-16 1 0
    outer loop
      vertex 3.67394e-16 3 1
      vertex -6.85634 3 11
      vertex 3.67394e-16 3 11
    endloop
  endfacet
  facet normal 0.876307 0.481753 0
    outer loop
      vertex -6.85634 3 1
      vertex -7.1459 3.52671 1
      vertex -7.1459 3.52671 11
    endloop
  endfacet
  facet normal 0.876307 0.481753 0
    outer loop
      vertex -6.85634 3 11
      vertex -6.85634 3 1
      vertex -7.1459 3.52671 11
    endloop
  endfacet
  facet normal 0.62209 0.341997 -0.704302
    outer loop
      vertex -6.85634 3 1
      vertex -7.30345 2.2323 0.232298
      vertex -7.1459 3.52671 1
    endloop
  endfacet
  facet normal 0.728968 0.684547 0
    outer loop
      vertex -7.1459 3.52671 1
      vertex -8.17546 4.62308 1
      vertex -8.17546 4.62308 11
    endloop
  endfacet
  facet normal 0.728968 0.684547 0
    outer loop
      vertex -7.1459 3.52671 11
      vertex -7.1459 3.52671 1
      vertex -8.17546 4.62308 11
    endloop
  endfacet
  facet normal 0.535827 0.844328 0
    outer loop
      vertex -9.44532 5.42896 1
      vertex -9.44532 5.42896 11
      vertex -8.17546 4.62308 1
    endloop
  endfacet
  facet normal 0.535827 0.844328 0
    outer loop
      vertex -8.17546 4.62308 1
      vertex -9.44532 5.42896 11
      vertex -8.17546 4.62308 11
    endloop
  endfacet
  facet normal 0.309017 0.951056 0
    outer loop
      vertex -10.8757 5.89372 1
      vertex -10.8757 5.89372 11
      vertex -9.44532 5.42896 1
    endloop
  endfacet
  facet normal 0.309017 0.951056 0
    outer loop
      vertex -9.44532 5.42896 1
      vertex -10.8757 5.89372 11
      vertex -9.44532 5.42896 11
    endloop
  endfacet
  facet normal 0.0627899 0.998027 0
    outer loop
      vertex -12.3767 5.98816 1
      vertex -12.3767 5.98816 11
      vertex -10.8757 5.89372 1
    endloop
  endfacet
  facet normal 0.0627899 0.998027 0
    outer loop
      vertex -10.8757 5.89372 1
      vertex -12.3767 5.98816 11
      vertex -10.8757 5.89372 11
    endloop
  endfacet
  facet normal -0.187381 0.982287 0
    outer loop
      vertex -13.8541 5.70634 1
      vertex -13.8541 5.70634 11
      vertex -12.3767 5.98816 1
    endloop
  endfacet
  facet normal -0.187381 0.982287 0
    outer loop
      vertex -12.3767 5.98816 1
      vertex -13.8541 5.70634 11
      vertex -12.3767 5.98816 11
    endloop
  endfacet
  facet normal -0.425779 0.904827 0
    outer loop
      vertex -15.215 5.06597 1
      vertex -15.215 5.06597 11
      vertex -13.8541 5.70634 1
    endloop
  endfacet
  facet normal -0.425779 0.904827 0
    outer loop
      vertex -13.8541 5.70634 1
      vertex -15.215 5.06597 11
      vertex -13.8541 5.70634 11
    endloop
  endfacet
  facet normal -0.637424 0.770513 0
    outer loop
      vertex -16.3738 4.10728 1
      vertex -16.3738 4.10728 11
      vertex -15.215 5.06597 1
    endloop
  endfacet
  facet normal -0.637424 0.770513 0
    outer loop
      vertex -15.215 5.06597 1
      vertex -16.3738 4.10728 11
      vertex -15.215 5.06597 11
    endloop
  endfacet
  facet normal -0.452507 0.546987 0.704302
    outer loop
      vertex -15.215 5.06597 11
      vertex -16.3738 4.10728 11
      vertex -15.6448 3.42274 12
    endloop
  endfacet
  facet normal -0.452507 0.546987 0.704302
    outer loop
      vertex -15.215 5.06597 11
      vertex -15.6448 3.42274 12
      vertex -14.6791 4.22164 12
    endloop
  endfacet
  facet normal -0.302261 0.642337 0.704302
    outer loop
      vertex -13.5451 4.75528 12
      vertex -15.215 5.06597 11
      vertex -14.6791 4.22164 12
    endloop
  endfacet
  facet normal -0.302261 0.642337 0.704302
    outer loop
      vertex -13.8541 5.70634 11
      vertex -15.215 5.06597 11
      vertex -13.5451 4.75528 12
    endloop
  endfacet
  facet normal -0.133022 0.697326 0.704302
    outer loop
      vertex -12.314 4.99013 12
      vertex -13.8541 5.70634 11
      vertex -13.5451 4.75528 12
    endloop
  endfacet
  facet normal 0.0445753 0.708499 0.704303
    outer loop
      vertex -10.8757 5.89372 11
      vertex -12.314 4.99013 12
      vertex -11.0631 4.91144 12
    endloop
  endfacet
  facet normal -0.133022 0.697326 0.704302
    outer loop
      vertex -12.3767 5.98816 11
      vertex -13.8541 5.70634 11
      vertex -12.314 4.99013 12
    endloop
  endfacet
  facet normal 0.0445746 0.7085 0.704302
    outer loop
      vertex -10.8757 5.89372 11
      vertex -12.3767 5.98816 11
      vertex -12.314 4.99013 12
    endloop
  endfacet
  facet normal 0.219371 0.675155 0.704303
    outer loop
      vertex -10.8757 5.89372 11
      vertex -11.0631 4.91144 12
      vertex -9.8711 4.52414 12
    endloop
  endfacet
  facet normal 0.219372 0.675155 0.704302
    outer loop
      vertex -9.44532 5.42896 11
      vertex -10.8757 5.89372 11
      vertex -9.8711 4.52414 12
    endloop
  endfacet
  facet normal 0.380383 0.599388 0.704302
    outer loop
      vertex -9.44532 5.42896 11
      vertex -9.8711 4.52414 12
      vertex -8.81288 3.85257 12
    endloop
  endfacet
  facet normal 0.380384 0.599389 0.704302
    outer loop
      vertex -8.17546 4.62308 11
      vertex -9.44532 5.42896 11
      vertex -8.81288 3.85257 12
    endloop
  endfacet
  facet normal 0.517495 0.48596 0.704302
    outer loop
      vertex -8.17546 4.62308 11
      vertex -8.81288 3.85257 12
      vertex -7.1459 3.52671 11
    endloop
  endfacet
  facet normal 0.517495 0.48596 0.704303
    outer loop
      vertex -7.1459 3.52671 11
      vertex -8.81288 3.85257 12
      vertex -7.95491 2.93893 12
    endloop
  endfacet
  facet normal 0.62209 0.341997 0.704302
    outer loop
      vertex -7.1459 3.52671 11
      vertex -7.95491 2.93893 12
      vertex -7.43874 2 12
    endloop
  endfacet
  facet normal 0.62209 0.341997 0.704302
    outer loop
      vertex -7.30345 2.2323 11.7677
      vertex -7.1459 3.52671 11
      vertex -7.43874 2 12
    endloop
  endfacet
  facet normal 8.65956e-17 0.707107 0.707107
    outer loop
      vertex -7.30345 2.2323 11.7677
      vertex -7.43874 2 12
      vertex 2.44929e-16 2 12
    endloop
  endfacet
  facet normal 8.65956e-17 0.707107 0.707107
    outer loop
      vertex -6.85634 3 11
      vertex -7.30345 2.2323 11.7677
      vertex 3.67394e-16 3 11
    endloop
  endfacet
  facet normal 8.65956e-17 0.707107 0.707107
    outer loop
      vertex 3.67394e-16 3 11
      vertex -7.30345 2.2323 11.7677
      vertex 2.44929e-16 2 12
    endloop
  endfacet
  facet normal 0 0.707107 0.707107
    outer loop
      vertex 2.44929e-16 2 12
      vertex 7.43874 2 12
      vertex 3.67394e-16 3 11
    endloop
  endfacet
  facet normal 0 0.707107 0.707107
    outer loop
      vertex 3.67394e-16 3 11
      vertex 7.43874 2 12
      vertex 7.30345 2.2323 11.7677
    endloop
  endfacet
  facet normal 0 0.707107 0.707107
    outer loop
      vertex 3.67394e-16 3 11
      vertex 7.30345 2.2323 11.7677
      vertex 6.85634 3 11
    endloop
  endfacet
  facet normal -0.62209 0.341997 0.704302
    outer loop
      vertex 7.95492 2.93893 12
      vertex 7.1459 3.52671 11
      vertex 7.30345 2.2323 11.7677
    endloop
  endfacet
  facet normal -0.62209 0.341997 0.704302
    outer loop
      vertex 7.43874 2 12
      vertex 7.95492 2.93893 12
      vertex 7.30345 2.2323 11.7677
    endloop
  endfacet
  facet normal -0.517495 0.48596 0.704303
    outer loop
      vertex 8.81288 3.85257 12
      vertex 7.1459 3.52671 11
      vertex 7.95492 2.93893 12
    endloop
  endfacet
  facet normal -0.517495 0.48596 0.704302
    outer loop
      vertex 8.17546 4.62308 11
      vertex 7.1459 3.52671 11
      vertex 8.81288 3.85257 12
    endloop
  endfacet
  facet normal -0.380384 0.599389 0.704302
    outer loop
      vertex 9.44532 5.42896 11
      vertex 8.17546 4.62308 11
      vertex 8.81288 3.85257 12
    endloop
  endfacet
  facet normal -0.380383 0.599388 0.704302
    outer loop
      vertex 9.44532 5.42896 11
      vertex 8.81288 3.85257 12
      vertex 9.8711 4.52413 12
    endloop
  endfacet
  facet normal -0.219371 0.675155 0.704303
    outer loop
      vertex 10.8757 5.89372 11
      vertex 9.8711 4.52413 12
      vertex 11.0631 4.91144 12
    endloop
  endfacet
  facet normal -0.219372 0.675155 0.704302
    outer loop
      vertex 10.8757 5.89372 11
      vertex 9.44532 5.42896 11
      vertex 9.8711 4.52413 12
    endloop
  endfacet
  facet normal -0.0445753 0.708499 0.704303
    outer loop
      vertex 12.314 4.99013 12
      vertex 10.8757 5.89372 11
      vertex 11.0631 4.91144 12
    endloop
  endfacet
  facet normal -0.0445746 0.7085 0.704302
    outer loop
      vertex 12.3767 5.98816 11
      vertex 10.8757 5.89372 11
      vertex 12.314 4.99013 12
    endloop
  endfacet
  facet normal 0.133022 0.697326 0.704302
    outer loop
      vertex 12.3767 5.98816 11
      vertex 12.314 4.99013 12
      vertex 13.8541 5.70634 11
    endloop
  endfacet
  facet normal 0.133022 0.697326 0.704302
    outer loop
      vertex 13.8541 5.70634 11
      vertex 12.314 4.99013 12
      vertex 13.5451 4.75528 12
    endloop
  endfacet
  facet normal 0.302261 0.642337 0.704302
    outer loop
      vertex 15.215 5.06597 11
      vertex 13.5451 4.75528 12
      vertex 14.6791 4.22164 12
    endloop
  endfacet
  facet normal 0.302261 0.642337 0.704302
    outer loop
      vertex 13.8541 5.70634 11
      vertex 13.5451 4.75528 12
      vertex 15.215 5.06597 11
    endloop
  endfacet
  facet normal 0.452507 0.546987 0.704302
    outer loop
      vertex 15.215 5.06597 11
      vertex 14.6791 4.22164 12
      vertex 15.6448 3.42274 12
    endloop
  endfacet
  facet normal 0.452507 0.546987 0.704302
    outer loop
      vertex 16.3738 4.10728 11
      vertex 15.215 5.06597 11
      vertex 15.6448 3.42274 12
    endloop
  endfacet
  facet normal 0.574321 0.417269 0.704302
    outer loop
      vertex 16.3738 4.10728 11
      vertex 15.6448 3.42274 12
      vertex 17.2578 2.89052 11
    endloop
  endfacet
  facet normal 0.574321 0.417268 0.704303
    outer loop
      vertex 17.2578 2.89052 11
      vertex 15.6448 3.42274 12
      vertex 16.3815 2.40877 12
    endloop
  endfacet
  facet normal 0.660048 0.261332 0.704303
    outer loop
      vertex 17.2578 2.89052 11
      vertex 16.3815 2.40877 12
      vertex 16.8429 1.24345 12
    endloop
  endfacet
  facet normal 0.660048 0.261332 0.704302
    outer loop
      vertex 17.2578 2.89052 11
      vertex 16.8429 1.24345 12
      vertex 17.8115 1.49214 11
    endloop
  endfacet
  facet normal 0.704302 0.0889741 0.704302
    outer loop
      vertex 17.8115 1.49214 11
      vertex 16.8429 1.24345 12
      vertex 18 0 11
    endloop
  endfacet
  facet normal 0.704302 0.088974 0.704302
    outer loop
      vertex 18 0 11
      vertex 16.8429 1.24345 12
      vertex 17 0 12
    endloop
  endfacet
  facet normal 0.704302 -0.088974 0.704302
    outer loop
      vertex 17 0 12
      vertex 16.8429 -1.24345 12
      vertex 18 0 11
    endloop
  endfacet
  facet normal 0.660048 -0.261332 0.704303
    outer loop
      vertex 16.8429 -1.24345 12
      vertex 16.3815 -2.40877 12
      vertex 17.2578 -2.89052 11
    endloop
  endfacet
  facet normal 0.704302 -0.0889741 0.704302
    outer loop
      vertex 18 0 11
      vertex 16.8429 -1.24345 12
      vertex 17.8115 -1.49214 11
    endloop
  endfacet
  facet normal 0.660048 -0.261332 0.704302
    outer loop
      vertex 17.8115 -1.49214 11
      vertex 16.8429 -1.24345 12
      vertex 17.2578 -2.89052 11
    endloop
  endfacet
  facet normal 0.574321 -0.417268 0.704303
    outer loop
      vertex 16.3815 -2.40877 12
      vertex 15.6448 -3.42274 12
      vertex 17.2578 -2.89052 11
    endloop
  endfacet
  facet normal 0.574321 -0.417269 0.704302
    outer loop
      vertex 17.2578 -2.89052 11
      vertex 15.6448 -3.42274 12
      vertex 16.3738 -4.10728 11
    endloop
  endfacet
  facet normal 0.452507 -0.546987 0.704302
    outer loop
      vertex 15.6448 -3.42274 12
      vertex 15.215 -5.06597 11
      vertex 16.3738 -4.10728 11
    endloop
  endfacet
  facet normal 0.452507 -0.546987 0.704302
    outer loop
      vertex 15.6448 -3.42274 12
      vertex 14.6791 -4.22164 12
      vertex 15.215 -5.06597 11
    endloop
  endfacet
  facet normal 0.302261 -0.642337 0.704302
    outer loop
      vertex 14.6791 -4.22164 12
      vertex 13.5451 -4.75528 12
      vertex 15.215 -5.06597 11
    endloop
  endfacet
  facet normal 0.302261 -0.642337 0.704302
    outer loop
      vertex 15.215 -5.06597 11
      vertex 13.5451 -4.75528 12
      vertex 13.8541 -5.70634 11
    endloop
  endfacet
  facet normal 0.133022 -0.697326 0.704302
    outer loop
      vertex 13.5451 -4.75528 12
      vertex 12.314 -4.99013 12
      vertex 13.8541 -5.70634 11
    endloop
  endfacet
  facet normal -0.0445753 -0.708499 0.704303
    outer loop
      vertex 11.0631 -4.91144 12
      vertex 10.8757 -5.89372 11
      vertex 12.314 -4.99013 12
    endloop
  endfacet
  facet normal 0.133022 -0.697326 0.704302
    outer loop
      vertex 13.8541 -5.70634 11
      vertex 12.314 -4.99013 12
      vertex 12.3767 -5.98816 11
    endloop
  endfacet
  facet normal -0.0445746 -0.7085 0.704302
    outer loop
      vertex 12.314 -4.99013 12
      vertex 10.8757 -5.89372 11
      vertex 12.3767 -5.98816 11
    endloop
  endfacet
  facet normal -0.219371 -0.675155 0.704303
    outer loop
      vertex 11.0631 -4.91144 12
      vertex 9.8711 -4.52413 12
      vertex 10.8757 -5.89372 11
    endloop
  endfacet
  facet normal -0.219372 -0.675155 0.704302
    outer loop
      vertex 9.8711 -4.52413 12
      vertex 9.44532 -5.42896 11
      vertex 10.8757 -5.89372 11
    endloop
  endfacet
  facet normal -0.380383 -0.599388 0.704302
    outer loop
      vertex 9.8711 -4.52413 12
      vertex 8.81288 -3.85257 12
      vertex 9.44532 -5.42896 11
    endloop
  endfacet
  facet normal -0.380384 -0.599389 0.704302
    outer loop
      vertex 8.81288 -3.85257 12
      vertex 8.17546 -4.62308 11
      vertex 9.44532 -5.42896 11
    endloop
  endfacet
  facet normal -0.517495 -0.48596 0.704302
    outer loop
      vertex 8.81288 -3.85257 12
      vertex 7.1459 -3.52671 11
      vertex 8.17546 -4.62308 11
    endloop
  endfacet
  facet normal -0.517495 -0.48596 0.704303
    outer loop
      vertex 7.95492 -2.93893 12
      vertex 7.1459 -3.52671 11
      vertex 8.81288 -3.85257 12
    endloop
  endfacet
  facet normal -0.62209 -0.341997 0.704302
    outer loop
      vertex 7.30345 -2.2323 11.7677
      vertex 7.1459 -3.52671 11
      vertex 7.95492 -2.93893 12
    endloop
  endfacet
  facet normal -0.62209 -0.341997 0.704302
    outer loop
      vertex 7.43874 -2 12
      vertex 7.30345 -2.2323 11.7677
      vertex 7.95492 -2.93893 12
    endloop
  endfacet
  facet normal 0.62209 -0.341997 0.704302
    outer loop
      vertex -7.43874 -2 12
      vertex -7.95492 -2.93893 12
      vertex -7.1459 -3.52671 11
    endloop
  endfacet
  facet normal 0.62209 -0.341997 0.704302
    outer loop
      vertex -7.30345 -2.2323 11.7677
      vertex -7.43874 -2 12
      vertex -7.1459 -3.52671 11
    endloop
  endfacet
  facet normal 0.517495 -0.48596 0.704303
    outer loop
      vertex -7.95492 -2.93893 12
      vertex -8.81288 -3.85257 12
      vertex -7.1459 -3.52671 11
    endloop
  endfacet
  facet normal 0.517495 -0.48596 0.704302
    outer loop
      vertex -7.1459 -3.52671 11
      vertex -8.81288 -3.85257 12
      vertex -8.17546 -4.62308 11
    endloop
  endfacet
  facet normal 0.380384 -0.599389 0.704302
    outer loop
      vertex -8.81288 -3.85257 12
      vertex -9.44532 -5.42896 11
      vertex -8.17546 -4.62308 11
    endloop
  endfacet
  facet normal 0.380383 -0.599388 0.704302
    outer loop
      vertex -8.81288 -3.85257 12
      vertex -9.8711 -4.52413 12
      vertex -9.44532 -5.42896 11
    endloop
  endfacet
  facet normal 0.219371 -0.675155 0.704303
    outer loop
      vertex -9.8711 -4.52413 12
      vertex -11.0631 -4.91144 12
      vertex -10.8757 -5.89372 11
    endloop
  endfacet
  facet normal 0.219372 -0.675155 0.704302
    outer loop
      vertex -9.8711 -4.52413 12
      vertex -10.8757 -5.89372 11
      vertex -9.44532 -5.42896 11
    endloop
  endfacet
  facet normal 0.0445753 -0.708499 0.704303
    outer loop
      vertex -11.0631 -4.91144 12
      vertex -12.314 -4.99013 12
      vertex -10.8757 -5.89372 11
    endloop
  endfacet
  facet normal 0.0445746 -0.7085 0.704302
    outer loop
      vertex -12.314 -4.99013 12
      vertex -12.3767 -5.98816 11
      vertex -10.8757 -5.89372 11
    endloop
  endfacet
  facet normal -0.133022 -0.697326 0.704302
    outer loop
      vertex -12.314 -4.99013 12
      vertex -13.8541 -5.70634 11
      vertex -12.3767 -5.98816 11
    endloop
  endfacet
  facet normal -0.133022 -0.697326 0.704302
    outer loop
      vertex -13.5451 -4.75528 12
      vertex -13.8541 -5.70634 11
      vertex -12.314 -4.99013 12
    endloop
  endfacet
  facet normal -0.302261 -0.642337 0.704302
    outer loop
      vertex -14.6791 -4.22164 12
      vertex -15.215 -5.06597 11
      vertex -13.5451 -4.75528 12
    endloop
  endfacet
  facet normal -0.302261 -0.642337 0.704302
    outer loop
      vertex -13.5451 -4.75528 12
      vertex -15.215 -5.06597 11
      vertex -13.8541 -5.70634 11
    endloop
  endfacet
  facet normal -0.452507 -0.546987 0.704302
    outer loop
      vertex -14.6791 -4.22164 12
      vertex -15.6448 -3.42274 12
      vertex -15.215 -5.06597 11
    endloop
  endfacet
  facet normal 0.62209 -0.341997 0.704302
    outer loop
      vertex -6.85634 -3 11
      vertex -7.30345 -2.2323 11.7677
      vertex -7.1459 -3.52671 11
    endloop
  endfacet
  facet normal -0.62209 -0.341997 0.704302
    outer loop
      vertex 7.30345 -2.2323 11.7677
      vertex 6.85634 -3 11
      vertex 7.1459 -3.52671 11
    endloop
  endfacet
  facet normal -0.62209 0.341997 0.704302
    outer loop
      vertex 7.1459 3.52671 11
      vertex 6.85634 3 11
      vertex 7.30345 2.2323 11.7677
    endloop
  endfacet
  facet normal 0.62209 0.341997 0.704302
    outer loop
      vertex -7.1459 3.52671 11
      vertex -7.30345 2.2323 11.7677
      vertex -6.85634 3 11
    endloop
  endfacet
endsolid OpenSCAD_Model
